<svg xmlns="http://www.w3.org/2000/svg" width="300" height="200" viewBox="0 0 300 200">
  <metadata><?xpacket begin="﻿" id="W5M0MpCehiHzreSzNTczkc9d"?>
<x:xmpmeta xmlns:x="adobe:ns:meta/" x:xmptk="Adobe XMP Core 5.6-c142 79.160924, 2017/07/13-01:06:39        ">
   <rdf:RDF xmlns:rdf="http://www.w3.org/1999/02/22-rdf-syntax-ns#">
      <rdf:Description rdf:about=""/>
   </rdf:RDF>
</x:xmpmeta>
                                                                                                    
                                                                                                    
                                                                                                    
                                                                                                    
                                                                                                    
                                                                                                    
                                                                                                    
                                                                                                    
                                                                                                    
                                                                                                    
                                                                                                    
                                                                                                    
                                                                                                    
                                                                                                    
                                                                                                    
                                                                                                    
                                                                                                    
                                                                                                    
                                                                                                    
                                                                                                    
                           
<?xpacket end="w"?></metadata>
<defs>
    <style>
      .cls-1 {
        fill: #61625b;
      }

      .cls-1, .cls-2, .cls-3, .cls-4, .cls-5 {
        fill-rule: evenodd;
      }

      .cls-2 {
        fill: #207cf9;
      }

      .cls-3 {
        fill: #a0c4f4;
      }

      .cls-4 {
        fill: #414443;
      }
    </style>
  </defs>
  <path id="Color_Fill_2" data-name="Color Fill 2" class="cls-1" d="M136,14c11.6,0.07,14.79,4.095,21,9q0.5,15.5,1,31l15,3c1.476,5.86,2.218,17.525,4,22l26,3c4.626-12.343,25.393-29.8,42-22v4c-8.518,6.368-11.306,16.433-21,22l2,3c6.491,3.949,6.131,15.621,12,19,3.608,2.078,8.314,1.533,11,3v5q-2.5,4-5,8c4.87,7.088,9.063,19.122,7,30l-2,3-6-2c-2.669-8.292-3.559-21.211-2-32l-2,1c-2.127,15.181-8.54,15.055-17,23l19,18q-1,3-2,6c-21.413,4.717-37.885-1.446-43-17-43.614,1.09-134.481,1.468-149-28-1.778-5.94-.412-12.907,1-18,13.681-9.245,27.5-20.875,45-26l24-3c1.909-13.674,13.149-17.41,23-23,2.516-8.973,3.471-17.977,0-27-12.739.584-10.727-8.134-6-14ZM247,74l4,2c-0.595,9.83-2.282,20.219-6,27C227.127,101.212,242.227,78.106,247,74Z"/>
  <path id="Color_Fill_3" data-name="Color Fill 3" class="cls-2" d="M136,15l5,1c0.139,4.913,1.2,5.414-1,8-2.23,2.695-3.124,2.73-8,3V25c-1.668-4.47-.013-5.881,2-9Zm-9,50c8.451-.273,25.7-0.985,31,3l-2,3c-9.458,1.059-26.273,4.33-34,1V69Zm17,44c10.329-.229,22.631-0.356,30,2,2.541,4.209,6.719,8.534,4,15-6.893,13.715-44.507,8.721-53,0C125.206,110.857,132.813,112.954,144,109Z"/>
  <path id="Color_Fill_4" data-name="Color Fill 4" class="cls-3" d="M135,17l2,1q-0.5,3.5-1,7l-2,2-2-1Zm-8,48,7,1-2,3-8,1V69Zm24,44c6.209-.229,11.4.237,15,2q-0.5,1-1,2c-14.667.8-23.238,6.9-36,9l3-5Z"/>
  <path id="Color_Fill_5" data-name="Color Fill 5" class="cls-4" d="M141,16c17.752,1.391,15.616,21.205,16,39-4.975-.555-3.872.19-6-3l3-16c-4.2-6.375-7.825-9.886-13-15V16Zm98,46c7.288,5.216-16.42,21.643-20,25,10.1,3.642,12.877,12.5,17,22l10,1c-8.194,14.806-10.889,32.951-31,36q0.5,1,1,2l12,8-29,3c-0.979-7.148-2.578-7.566-11-7-41.044,11.633-117.4-8.175-140-24V112l2-1c2.111,15.627,92.472,45.727,122,35l25-15c12.012-11.072,25.17-27.323,10-44C215.57,75.5,227.378,70.615,239,62Zm-66,5q1,5.5,2,11l-1,1H118V78l3-7C133.579,77.252,165.82,75.561,173,67Zm70,61c2.969,2.068,3.109,2.708,4,7l-6,5C240.811,134.53,241.26,130.911,243,128Z"/>
  <path id="Color_Fill_1" data-name="Color Fill 1" class="cls-5" d="M135,13c9.3,1.277,17.49,1.734,21,9,3.987,7.638,3.453,23.39,2,33,8.425-.245,12.272,1.144,17,4,1.389,5.776,2.838,13.613,1,20l27,3c4.564-14.354,23-28.672,43-23-2.489,13.944-14.476,20.84-23,29,9.172,4.173,9.165,15.822,18,19-5.663-10.661-5.59-27.45,5-33,3.672-.682,2.695-1.237,5,2,3.135,8.137-4.008,23.057-7,30,3.16,3.083,4.8,3.566,7,8-0.805,5.854-1.934,5.908-5,9,3.708,7.41,10.764,23.758,4,32-1.963,2.066-.375,1.035-4,2l-4-3c-3.215-10.061-3.328-20.811,1-30h-4c-0.608,12.642-6.218,19.471-15,24l4,5,15,14q-0.5,1.5-1,3c-35.794,11.269-33.1-12.627-54-15-40.981,12.045-142.229-5.342-142-40,10.887-22.1,41.974-33.274,71-37,2.656-13.792,12.218-19.191,26-22,0.258-10.735,1.169-19.865-2-26l-9-1-3-6C130.069,17.026,131.631,16.264,135,13Zm-1,3c-1.954,4.4-2.1,6.783,0,11l5-1V17Zm8,1c-0.392,7.705-.686,8.856,2,13l5-4q1-2.5,2-5l-2-3h-2Zm11,5c-2.809,7.172-6.535,6.791-7,17,4.962-1.113,5.73-2.619,9-5Q154,28,153,22Zm-7,27,10-1q-0.5-5.5-1-11l-3,3-6,2v7Zm10,6q-0.5-2.5-1-5l-10,2v4Zm-8,3c-5.573,2.117-12.049,1.547-16,5l27,2v6c-8.027,2-36.276,2.185-40,7l55,1V68q-1-4-2-8C166.087,57.825,156.679,57.84,148,58Zm93,2c-18.087,7.861-28.759,4.391-36,23l14,3C225.046,83.442,247.531,65.277,241,60ZM127,65l-4,6v1c12.152,0.429,26.888.924,34-4V67ZM246,76c-4.744,6.807-10.746,18.585-3,27C244.582,96.129,252.8,80.334,246,76ZM114,81c-18.165,7.026-33.826,7.057-47,18,13.885,19.325,3.681,25.24,1,41,33.051,8.852,158.057,32.07,168-12C248.713,71.653,160.1,80.25,114,81ZM63,100c-6.3,4.661-18.831,11.974-13,25,2.992,7.187,8.334,8.68,14,13l2-1C71.13,126.642,76.783,106.862,63,100Zm83,6c15.962-.532,24.3,1.329,33,7,1.866,6.467,2.435,8.244,1,15-15.5,12.321-44.64,9.328-57-4v-6l5-8Zm15,2c-14.008,5.03-25.918.231-35,9,0.166,6.9,1.362,7.27,4,11,11.835,3.711,28.5,6.676,43,3l6-9q-0.5-2-1-4C174.191,112.151,169.385,109.3,161,108Zm77,2q1,5.5,2,11l6-2c2.125-2.079,1.842-2.59,2-7q-0.5-1-1-2h-9Zm6,17c-3.336,8.731-3.067,22.8,3,28l2-3C252.566,144.306,248,130.924,244,127Zm-139,9h5q-0.5,2.5-1,5l-4,1v-6Zm93,1c3.027,1.932,1.619.2,3,4q-0.5,1-1,2h-3l-1-1C196.722,138.41,196.7,139.127,198,137Zm-75,1,5,2-3,4h-3l-1-1Zm18,2,5,3-3,2-4,1q-0.5-1.5-1-3Zm37,1h4q0.5,1.5,1,3-0.5,1-1,2h-4v-5Zm-18,1c3.14,2.057,2.069.478,3,5l-2,1-5-4v-1Zm57,8-20,4c9.886,14.016,20.148,17.639,43,14l-8-9C226.568,155.65,224.7,151.471,217,150Z"/>
</svg>
