<svg xmlns="http://www.w3.org/2000/svg" width="300" height="200" viewBox="0 0 300 200">
  <metadata><?xpacket begin="﻿" id="W5M0MpCehiHzreSzNTczkc9d"?>
<x:xmpmeta xmlns:x="adobe:ns:meta/" x:xmptk="Adobe XMP Core 5.6-c142 79.160924, 2017/07/13-01:06:39        ">
   <rdf:RDF xmlns:rdf="http://www.w3.org/1999/02/22-rdf-syntax-ns#">
      <rdf:Description rdf:about=""/>
   </rdf:RDF>
</x:xmpmeta>
                                                                                                    
                                                                                                    
                                                                                                    
                                                                                                    
                                                                                                    
                                                                                                    
                                                                                                    
                                                                                                    
                                                                                                    
                                                                                                    
                                                                                                    
                                                                                                    
                                                                                                    
                                                                                                    
                                                                                                    
                                                                                                    
                                                                                                    
                                                                                                    
                                                                                                    
                                                                                                    
                           
<?xpacket end="w"?></metadata>
<defs>
    <style>
      .cls-1 {
        fill: #89611c;
      }

      .cls-1, .cls-2, .cls-3, .cls-4, .cls-5 {
        fill-rule: evenodd;
      }

      .cls-2 {
        fill: #593f12;
      }

      .cls-3 {
        fill: #207bf7;
      }

      .cls-4 {
        fill: #93bcf3;
      }
    </style>
  </defs>
  <path id="Color_Fill_2" data-name="Color Fill 2" class="cls-1" d="M248,88c-0.16,11.28-2.71,15.52-3,27-1.58.8-5.392,1.846-7,3h1c4.994,3.842,10.1,4.489,17,4-0.008-3.162-1.694-1.345,1-3,2.917,6.376,5.99,1.41,6,13-8.858,5.41-26.092,7.036-42,7v2h2c3.819,2.434,17.175,1.867,22,2v2c3.14,4.106,2.148,15.037,2,23-7.6-.156-13.714-2.461-20-4-5.112-7.62-6.48-9.79-6-22h-3c-0.372-2.076-.242-1.924-1-3v1c-2.348,3.779-2.185,14.89-3,19-24.029,15.269-79.08,9-117,9-19.192,0-37.2,1.515-49-7-11.684-8.429-16.257-24.561-20-41-2.014-8.846,1.606-22.039,6-25,6.281-4.232,39.21-3.161,50-3,3.433-9.016,5.3-17.442,13-22,3.739-2.213,9.534-1.629,13-4,1.438-2.15,1.113-7.308,1-11,3.223-4.885.572-16.3-3-18-5.189-2.473-6.375,2.1-9-3-5.257-7.317,3.626-10.578,11-10,4.3,2.835,8.936,1.749,11,7,5.365,6.1,3.183,24.571,3,33h1v1c6.425-.188,12.951.578,15,5,4.189,4.733,2.249,15.129,2,22,3.127,1.079,8.414,1.065,13,1a28.9,28.9,0,0,0,1-9c-2.37-4.973,2.623-15.252,4-20,5.447-2.763,1.077-6.3,17-5,1.441,2.67,1.994,4.221,2,9a11.565,11.565,0,0,0-2,3c-3.992-1.215-4.423-1.83-9-1-3.036,5.247-3.136,12.916-3,22h1v1c8.994,0.8,23.38-.632,33,3,6.663,2.516,10.671,7.372,20,8C224.8,93.784,233.8,89.648,248,88Zm6,30c-0.474-7.092-2.778-10.114-3-18,5.019-3.818,5.268-10.62,12-13v1c1.238,1.838,1.089,5.7,1,9l-7,21h-3Zm3,19h2c2.5,9.319,7.394,17.527,5,30-1.766.961-1.68,1.257-4,2v-1C253.431,161.376,253.3,147.379,257,137Z"/>
  <path id="Color_Fill_3" data-name="Color Fill 3" class="cls-2" d="M108,32h5c6.975,10.681,8.969,20.043,4,34-4.586.687-7.392-.187-7-7C116.13,49.385,106.1,39.122,108,32Zm64,32c4,0.333,3.333,5,0,4-8.9,2.937-5.766,16.452-5,26a14.145,14.145,0,0,1-4,1l-1-2c-3-3.863-3.636-12.867-4-19,2.873-3.614,3.057-7.267,8-9C167.418,64.039,169.273,64.024,172,64ZM137,78a21.643,21.643,0,0,1,7,2,25.084,25.084,0,0,1,1,8c-0.8,1.021-.355.274-1,2l-3,1c-4.1,2.593-12.016-.419-16,0-2.317.243-9.167,2.366-12,3-8.471,1.9-16.718-1.4-24-2-1.285-1.834-1.968-1.712-3-4-0.752-1.073-.6-0.946-1-3h2c3.931-2.073,12.074.969,18,1C116.524,86.061,130.738,83.744,137,78ZM259,97c4.138,1.134,4.062,1.751,4,7l-5,11c-1.666.333-1.333,2.667-3,3,0-3-2-8-2-11C255.253,104.155,257.162,99.914,259,97Zm-23,1h7c1.588,2.95,2.075,5.721,2,11-0.682.771-.311,4.232-1,5-2.655,2.153-7.307.868-12,1-3.02-4.222-5.8-3.386-6-11ZM52,100a30.438,30.438,0,0,1,7,1c0.962,1.766,1.257,1.68,2,4-5.665,6.252.331,36.977,2,44,0.8,3.369-.46,6.813,1,9,2.312,1.541,8.105,1.119,12,1,4.944,3.078,30.856,2,39,2l72,1a114.9,114.9,0,0,1,22-3v2c-0.682.771-1.311,2.232-2,3-6.9,6.129-43.052,4.023-57,4l-43-2c-34.108,4.663-59.834,5.55-71-23-2.638-6.746-11.489-19.841-5-29,0.976-4.214,3.057-7.64,7-9C41.476,101.97,48.02,102.7,52,100Zm187,25c7.6-.176,13.807.847,19,3,0.558,1.6,1.8,3.4,2,6h-2c-4.97,3.151-16.321-1.494-23,0-4.471,1-12.444,4.161-17,4h-1v-1c-1.938-1.667-1.668-1.439-2-5a85.277,85.277,0,0,1,16-6C234.087,125.2,237.013,126.3,239,125Zm18,15c2.076,0.372,1.924.242,3,1,1.749,2.643,1.126,9.695,1,14-0.649.86-1.338,3.144-2,4-1.073.752-.946,0.6-3,1q-0.5-1.5-1-3C251.654,152.222,255.228,143.1,257,140Zm-33,2c6.529-.1,13.939-0.022,19,1,2.621,3.945,3.935,4.483,3,10-4.964,2.363-8.095,3.974-16,4-5.064-3.967-10.588-4.1-11-13C220.3,143.526,222.959,142.786,224,142Z"/>
  <path id="Color_Fill_4" data-name="Color Fill 4" class="cls-3" d="M103,23h4a28.9,28.9,0,0,1,1,9c-0.8,1.021-.355.274-1,2-2.418,1.3.5,5.135-7,2l-1-3c-0.961-1.418-.976-3.273-1-6A24.965,24.965,0,0,0,103,23Zm71,45c-0.036-5.543,1.02-4.973,2-9h1v1c2.281,1.97,2.14,4.543,2,9-0.8,1.021-.355.274-1,2C176.667,71,175.333,68,174,68ZM95,74c9.469-.151,22.9-0.769,31,2v2c-2.418,1.3-2.833,1.8-7,2-2.536,1.926-16.376,2.819-20,3-0.6-1.725-13.557,2.181-9-5A24.976,24.976,0,0,0,95,74ZM84,108c6.608,0.256,14.884,4.01,18,8,3.022,3.658,1.661,8.764,1,12-7.633,4.046-14.813,9.541-26,5a29.381,29.381,0,0,0-4-6c-0.036-5.543,1.02-7.973,2-12A59.772,59.772,0,0,0,84,108Zm50,4c8.725-.4,17.685,1.069,20,7,5,20.466-32.431,20.586-32,3C125.962,118.3,129.653,115.557,134,112Zm47,0c8-.234,13.83,2.069,14,10-2.765,2.85-5.315,6.131-8,9-3.666,3.333-9.334-.667-14-1-1.372-2.542-1.917-3.5-2-8C174.33,118.893,177.889,115.327,181,112Zm85,102"/>
  <path id="Color_Fill_5" data-name="Color Fill 5" class="cls-4" d="M102,24h4v1c-2.178,2.413-3.59,6.986-5,10h-1V34c-0.877-1.295-.894-2.467-1-5A18.709,18.709,0,0,0,102,24Zm74,36c2.694,1.865,2.86,2.377,3,7h-2c-1.121-2.091-1.434-1.832-2-5C175.8,60.979,175.355,61.726,176,60ZM97,74h6v1h-1v1c-3.562,2-5.87,2.988-12,3V78h1C92.613,76.126,95.214,75.655,97,74Zm-9,38v3c-5.263,1.46-5.8,4.943-10,7v-2c2.4-3.132,1.733-5.443,6-7C85.18,112.2,85.681,112.227,88,112Zm50,1h4v2c-0.8,1.021-.355.274-1,2-7.15.228-8.014,3.184-13,5v-4C130.7,116.516,135.338,115,138,113Zm43,1c2.963,0.829,2.733.443,4,3-4.52,1.15-6.009,3.577-10,5v-2h1C177.246,116.5,179.049,116.518,181,114Z"/>
  <path id="Color_Fill_1" data-name="Color Fill 1" class="cls-5" d="M125,64a51.681,51.681,0,0,1,15,2c3.629,6.312,4.107,14.269,4,25h10c-0.507-19.894,2.426-23.51,12-33h13v2c2.925,3.658,1.128,6.62,0,11a15.7,15.7,0,0,1-5,1c-1.35-1.624-.64-1.121-3-2-1.285,1.834-1.968,1.712-3,4-2.066,3.151-1.13,12.069-1,17,4.106,1.4,11.344,1.074,17,1,3.4,2.055,9.989.522,14,2,6.6,2.432,12.143,7.7,20,9,4.963-10.714,15.557-16,31-16a15.705,15.705,0,0,1,1,5c-3.012,4.56-2.976,16.338-3,23a25.766,25.766,0,0,1-5,2c1.021,0.8.274,0.355,2,1,2.129,2.089,3.882,2.714,8,3,0.771-.682,2.232-1.311,3-2-8.1-7.939-3.845-28.687,5-32,1.18-.8,1.681-0.773,4-1l1,3c5.608,9.049-8.847,23.577-6,31,1.406,1.211,2.79,1.52,4,3,1.664,2.069,1.91,4.155,2,8a19.859,19.859,0,0,0-5,6c6.031,6.54,6.8,19.547,6,30-2.744,1.939-2.02,2.677-7,3a34.115,34.115,0,0,1-2-33h-9c-5.635,3.4-16.6.433-22,4,6.671-.317,17.9-1.739,20,3,3.68,4.126,2.5,20.227,2,25-12.034.424-24.089-2.223-27-11-1.922-2.979-.936-10.01-4-12,0.1,6.222-.937,9.612-2,14-21.117,13.974-53.493,8.943-86,9-13.345.023-30.116,2.8-43,0H64a52.932,52.932,0,0,1-22-11c-8.15-6.961-26.376-56.308-8-64,6.769-5.153,36.624-3.113,49-3,3-8.28,4.422-16.538,11-21,3.04-2.062,13.863-2.137,16-5V47c0.829-1.66.238-2.585,0-6-2.714-1.4-7.246-2.274-11-3-3.95-7.745-2.332-10.533,3-16,5.617,0.911,13.922,1.173,18,4C127.5,31.2,126.511,53.085,125,64ZM101,25a18.239,18.239,0,0,0-2,9c2.281,1.225,2.251,1.638,6,2V35h1C106.842,29.239,108.183,25.565,101,25Zm8,1q-0.5,5.5-1,11c2.389,0.842,1.645.4,3,2h1V38c3.421-2.265,4.353-4.936,6-9l-2-1C114.105,26.479,112.41,26.211,109,26Zm4,22,5-1c2.752-4.111,4.106-5.209,4-13-0.682-.771-1.311-2.232-2-3v2C115.722,36.875,112.909,39.438,113,48Zm0,10,10-1V46h-2C117.24,50.87,113.073,48.761,113,58Zm-1,3v4l11-1V59h-2C118.774,60.791,116.2,61,112,61Zm61,7q0.5-4,1-8c-6.973-.2-11.75,1.178-13,7,2.556,1.479,3.147,2.4,7,3C170.116,66.6,168.438,67.964,173,68Zm4-8c-1.494,3.884-2.186,7.132,0,10C178.8,66.957,180.308,62.89,177,60Zm-10,2a11.725,11.725,0,0,1,2,5h-1V66C167.2,64.82,167.227,64.319,167,62ZM141,91c0.809-8.862.207-16.035-3-23-12.975-1.723-29.027-1.1-39,3v1h19c1.628,1.088,5.859,1.593,8,2a15.705,15.705,0,0,1,1,5l-3,1c-6.393,5.7-26.164,4.269-36,3v2c-1.48,1.906-1.85,3.319-1,5,4.156,2.618,13.133.124,19,1C115.778,92.459,128.762,91.127,141,91Zm18-23a36.09,36.09,0,0,0-1,7h1v1c3.2,0.257,3.191.994,5,0,1.119-1.473,2.087-3.052,1-4A32.3,32.3,0,0,0,159,68ZM94,74a24.976,24.976,0,0,1-4,5v2h22c4.146-2.46,9.678-.552,12-5h-2C118.676,73.886,99.43,73.943,94,74Zm63,4v5a18.313,18.313,0,0,0,6,1v1h1V79Zm7,13V87a30.433,30.433,0,0,1-7-1q-0.5,2.5-1,5h8Zm99-2c-10.983,1.911-10.8,18.227-7,27h1C258.2,106.29,262.659,100.351,263,89Zm-17,1c-7.065.732-12.7,3.439-19,5a50.627,50.627,0,0,1-6,8c0.631,1.754.193,0.971,1,2,4.565,5.869,12.879,9.271,21,9v-1h1Q245,101.5,246,90ZM67,166l70-1c11.7,2.47,31.476,3.708,44,1,13.863-3,23.3,1.354,30-8,5.335-7.541-1.313-21.772,12-22,5.225-3.344,19.758-2.961,27-3v-7c-16.777-10.214-39.941-26.777-61-31-4.816-.966-15.452,1.706-23,0-13.662-3.087-41.35-3.171-55,0L62,94c-2.777,8.258-1.082,22.9-1,33C62.161,128.888,66.832,162.45,67,166ZM60,95c-9.515-.208-20.148.207-27,3-9.335,19.131,1.808,51.465,15,61,5.108,3.692,10.162,4.751,17,7v-5C57.7,150.688,58.056,111.51,60,95Zm25,12c12.146,1.915,21.6,3.626,21,19-0.8,1.021-.355.274-1,2-11.415,7.8-13.935,9.325-30,5a9.6,9.6,0,0,0-3-5,56.259,56.259,0,0,1,1-12A86.653,86.653,0,0,0,85,107Zm48,2c12.711-.5,24.255,1.99,24,15-3.866,4.805-6.905,8.671-11,13-10.458.766-21.919,0.231-25-9C115.45,119.154,129.1,112.524,133,109Zm-49,1c-5.29,5.115-9.154,4.779-9,16l6,5c13.1,1.456,23.616,1.714,23-14C98.135,113.273,93.956,110.116,84,110Zm94,1,13,1c3.18,4.641,5.107,5.2,5,14a101.322,101.322,0,0,0-9,8c-5.9.077-8.791-.978-13-2-1.839-2.789-3.185-2.825-4-7C167.422,120.222,175.6,114.442,178,111Zm-44,1c-5.231,4.851-9.835,5.686-11,15,10.269,7.273,31.576,13.658,31-9C148.146,114.255,144.4,111.959,134,112Zm46,1c-3.252,4.6-6.992,5.7-8,13l6,5a50.073,50.073,0,0,0,11-1c3.886-5.609,4.932-6.612,3-14C187.766,114.709,186.142,113.171,180,113Zm73,10a50.073,50.073,0,0,0,1,11h4c1.359-1.262,1.768-1.365,4-2v-8A28.9,28.9,0,0,0,253,123Zm5,17c-2.9,7.454-1.8,18.546,0,26,1.766,0.961,1.68,1.257,4,2v-1C267.593,161.116,262.167,143.219,258,140Zm-13,26a89.68,89.68,0,0,0-2-21h-6c-2.894-1.858-12.254-1.8-16-2v2c1.927,3.012,2.288,10.4,3,14C229.952,162.73,235.653,164.926,245,166Zm-135-9v-4c2.091-1.121,1.832-1.434,5-2a14.124,14.124,0,0,1,1,4C113.719,156.225,113.749,156.638,110,157Zm20-6c2.347,0.708,2.234,1.025,4,2a2.834,2.834,0,0,1-1,1c-1.615,2.316-1.461,2.352-5,3a14.124,14.124,0,0,1-1-4A10.925,10.925,0,0,0,130,151Zm-59,1a16.986,16.986,0,0,1,6,1v1H76c-1.359,1.262-1.768,1.365-4,2v-2C71.2,152.979,71.645,153.726,71,152Zm24,0c1.887,2.348,1.186,4.172-2,3-2.468-1.295-.681.429-2-2C93.328,152.805,93.826,152.807,95,152Zm57,2c-0.372,2.076-.242,1.924-1,3-1.79,1.65-2.512,1.746-6,2a14.124,14.124,0,0,1-1-4,10.925,10.925,0,0,0,3-2Zm32-1c3.916,0.639,3.826.687,5,4h-1c-1.18.8-1.681,0.773-4,1C183.292,155.529,183.273,155.474,184,153Zm20,0c-0.372,2.076-.242,1.924-1,3v1h-3c0.372-2.076.242-1.924,1-3v-1h3Zm-35,2v4a14.124,14.124,0,0,1-4,1c-1.021-.8-0.274-0.355-2-1q-0.5-1.5-1-3A21.509,21.509,0,0,1,169,155Z"/>
</svg>
