<svg xmlns="http://www.w3.org/2000/svg" width="300" height="200" viewBox="0 0 300 200">
  <metadata><?xpacket begin="﻿" id="W5M0MpCehiHzreSzNTczkc9d"?>
<x:xmpmeta xmlns:x="adobe:ns:meta/" x:xmptk="Adobe XMP Core 5.6-c142 79.160924, 2017/07/13-01:06:39        ">
   <rdf:RDF xmlns:rdf="http://www.w3.org/1999/02/22-rdf-syntax-ns#">
      <rdf:Description rdf:about=""/>
   </rdf:RDF>
</x:xmpmeta>
                                                                                                    
                                                                                                    
                                                                                                    
                                                                                                    
                                                                                                    
                                                                                                    
                                                                                                    
                                                                                                    
                                                                                                    
                                                                                                    
                                                                                                    
                                                                                                    
                                                                                                    
                                                                                                    
                                                                                                    
                                                                                                    
                                                                                                    
                                                                                                    
                                                                                                    
                                                                                                    
                           
<?xpacket end="w"?></metadata>
<defs>
    <style>
      .cls-1 {
        fill: #77705b;
      }

      .cls-1, .cls-2, .cls-3, .cls-4, .cls-5 {
        fill-rule: evenodd;
      }

      .cls-2 {
        fill: #414443;
      }

      .cls-3 {
        fill: #207bf7;
      }

      .cls-4 {
        fill: #9ac0f3;
      }
    </style>
  </defs>
  <path id="Color_Fill_2" data-name="Color Fill 2" class="cls-1" d="M118,17c8.739-.386,17.684.89,20,7,5.365,6.1,3.183,24.571,3,33h1v1c6.425-.188,12.951.578,15,5,2.647,3.044,2.185,12.424,3,17,2.667,0.924,4.931.051,9,0,1.073,0.752,1.946-.4,4,0,0-.667,1,0.667,1,0-6.453-9.291,1.814-27.973,8-30,2.81-2.242,7.715-2.136,13-2a28.9,28.9,0,0,1,1,9,14.145,14.145,0,0,1-4,1c-1.737-1.322-1.607-1.727-3-1-2.684.891-2.589,1.028-4,3-4.05,5.12-3.557,15.068-3,22h2c7.4,0.508,24.744,1.723,33,2,9.917-16.052,16.724-22.45,41-24v1h1c-2.42,4.879-10.286,15.462-14,19-3.742,3.564-7.51,4.936-10,10h1a61.269,61.269,0,0,1,17,22h2c-0.012-3.736,2.426-7.4,1-12-1.268-4.1-3.715-5.329-4-12,4.088-4.69,4.351-10.7,11-13v1c1.238,1.838,1.089,5.7,1,9-3.824,5.418-6.4,16.321-7,24,5.371,2.058,6.317,3.182,6,11-2.271,1.47-3.009,2.1-4,5-1.92-1.46-2.173-3.053-4-2-8.624,3.115-4.287,9.979-9,17-2.472,3.683-7.7,4.949-9,11,4.257,2.7,16.973,13.726,18,19h-2c-1.976,1.268-4.869.3-8,1-29.746,6.623-25.179-15.478-40-17-5.723,3.629-30.484,2-40,2-31.591,0-72.5,4.176-99-3-9.13-2.472-21.368-2.231-26-9-5.408-7.905-3.45-21.02-1-30,9.605-35.211,18.46-33.779,62-33,3.3-7.123,7.8-15.856,15-19,3.714-1.623,8.008-.941,11-3,1.438-2.15,1.113-7.308,1-11,3.223-4.885.572-16.3-3-18-5.189-2.473-6.375,2.1-9-3C113.371,23.161,116.425,19.565,118,17ZM258,126c6.218,4.844,8.066,19.064,6,29-1.766.961-1.68,1.257-4,2l-5-8c-2.328-6.869,1.526-8.014-1-13C256.347,134.19,257.035,129.142,258,126Z"/>
  <path id="Color_Fill_5" data-name="Color Fill 5" class="cls-2" d="M142,58h-8c0.261-10.854.1-18.1-2-27-2.342-1.457-5.631-3.166-8-5,1.659-2.453.616-5.25,0-8h2c3.135-2.042,6.692.123,10,1C141.835,28.216,142.1,42.2,142,58Zm31,22c-0.123-18.214-1.319-22.351,8-32,4.606-.346,6-1.732,10-1a2.84,2.84,0,0,1-1,1c-9.735,9.121-14.592,17.555-11,34C177,82,175,80,173,80Zm81-20a12.667,12.667,0,0,1,4,1c-0.631,1.754-.193.971-1,2-2.184,5.6-7.6,4.67-13,7-8.047,3.475-16.025,15.283-24,16-1.121-2.091-1.434-1.832-2-5,4.076-3.159,5.061-9.96,9-13C233.746,62.794,247.075,64.514,254,60Zm-98,7c2.191,1.886,2.087,3.723,2,8,1.142,1.69,1.066,1.9,1,5h-3c-7.932-1.838-17.572,1.572-27,0C138.705,79.028,151.25,73.329,156,67ZM263,80c0.427,9.15-.136,22.236-7,26v-2c-5.892-6.705-2.509-18.232,4-23C261.073,80.248,260.946,80.4,263,80Zm-3,29v6c-10.609,6.944-6.514,15.323-13,25-4.835,7.213-12.848,5.99-20,11,12.275-1.062,17.737,4.622,23,13h-8c-10.032,6.887-27.962-4.186-31-9h2c3.316-2.228,9.753-1.67,13-4-28.267,4.837-89.6,9.445-133,3H73c-18.633-4.15-28.773-1.732-36-14-0.631-22.386,2.841-45.436,16-54,3.68-2.891,10.811-3.913,17-4v1h1v1H70c-2.668,2.7-7.632,4.1-10,7-10.4,12.729-10.095,28.087-10,50,18.906,8.949,53.03,8.951,81,9,9.666,0,11.334,1,21,1,9.109,1.137,20.886-3.15,24-4,9,0,9-2,18-2,13.409,0,24.433-1.684,36-2,1.791-2.152,5.438-2.816,7-5,4.442-6.211,8.454-20.569,5-31-1.557-4.7-5.46-9.5-7-15h2c6.739,5.73,10.33,8.852,14,18A28.9,28.9,0,0,1,260,109Zm-1,26c1.333,0,2.667-1,4-1v2c2.773,3.518,2.157,11.642,2,18-1.834,1.285-1.712,1.968-4,3v-1c-4.224-1.8-5.157-4.7-5-11C257.58,142.494,257.994,137.559,259,135ZM180,85m-11,8"/>
  <path id="Color_Fill_3" data-name="Color Fill 3" class="cls-3" d="M116,30c-0.117-3.28-1.236-7.184,0-9,1.121-3.364,1.133-3.314,5-4,1.021,0.8.274,0.355,2,1a25.084,25.084,0,0,1,1,8C121.016,28.85,122.3,29.928,116,30Zm77,18c3.6,1.424,3.185,3.069,3,8-1.766.962-1.68,1.257-4,2V50C192.8,48.979,192.355,49.726,193,48ZM105,74V71l6-5c11.2-.218,23.186-0.077,32,3v1h-1C132.92,76.548,118.6,74.17,105,74Zm1,25c5.6-.873,17.541,3.145,21.028,8.669-0.3-1.087,1.963,6.021,1.972,9.331-2.774,2.693-3.827,5.544-8,7-7.022,5.868-26.294,3.612-26-8-0.961-1.418-.976-3.273-1-6C97.119,107.187,101.333,102.667,106,99Zm51,3c13.527-.622,28.241,1.391,28,15-0.961,1.418-1.976,1.273-2,4-3.429,2.334-3.442,5.4-9,6-7.371,4.975-23.982-4.331-26-9,0-3,2-5,2-8C152.82,108.208,154.593,104.391,157,102Zm-34,3"/>
  <path id="Color_Fill_4" data-name="Color Fill 4" class="cls-4" d="M118,16c2.347,0.708,2.234,1.025,4,2-1.716,2.87-2.632,6.105-4,10h-1C116.364,22.385,117.162,21.284,118,16Zm75,32,3,1c-0.333,1,.333,4,0,5-0.333,0-1.667-2-2-2,0-.333,1,2.333,1,2A20.592,20.592,0,0,1,193,48ZM113,65c2.873,1.12,1.842.174,3,3h1c0.99,1.01-.985.989-1,1-2.153,2.713-5.547,3.6-9,5V70A21.98,21.98,0,0,0,113,65Zm-3,38h4a14.124,14.124,0,0,1,1,4c-3.142,1.762-11.838,5.824-13,6-1.829-1.568-1.395-.882-2-4l6-5C108.328,103.805,108.826,103.807,110,103Zm56,0c3.542,0.344,4.609.435,6,3h-1c-2.308,1.571-4.89.7-8,2-2.963,1.241-4.783,4.9-7,7v-4C160.5,102.968,163.285,105.694,166,103Z"/>
  <path id="Color_Fill_1" data-name="Color Fill 1" class="cls-5" d="M161,79l10,1c-0.67-18.424,2.68-25.992,12-34h13c1.449,5.74,1.449,7.26,0,13-4.615.884-5.977-.919-9,1-1.923,1.392-.6.1-2,2q-0.5,9.5-1,19l33,1c6.464-12.978,22.268-27.767,43-22-2.489,13.944-14.476,20.84-23,29,9.172,4.173,9.165,15.822,18,19-5.663-10.661-5.59-27.45,5-33,3.672-.682,2.695-1.237,5,2,3.135,8.137-4.008,23.057-7,30,3.16,3.083,4.8,3.566,7,8-0.805,5.854-1.934,5.908-5,9,3.708,7.41,10.764,23.758,4,32-1.963,2.066-.375,1.035-4,2l-4-3c-3.215-10.061-3.328-20.811,1-30h-4c-0.608,12.642-6.218,19.471-15,24l4,5,15,14-1,3c-25.621,8.548-35.464-3.084-48-15-55.268,1.336-124.8,7.537-168-9-5.267-10.38-5.339-23.557-2-36,8.374-31.21,24.777-31.963,62-31,5.864-12.809,11.408-18.708,27-22,0.258-10.735,1.169-19.865-2-26l-9-1-3-6q0.5-2.5,1-5l6-5c8.94,2.011,16.38,1.561,20,9,3.987,7.638,3.453,23.39,2,33,8.425-.245,12.272,1.144,17,4Q160,70,161,79ZM118,18c-1.954,4.4-2.1,6.783,0,11l5-1V19Zm8,1c-0.392,7.705-.686,8.856,2,13l5-4q1-2.5,2-5l-2-3h-2Zm11,5c-2.809,7.172-6.535,6.791-7,17,4.962-1.113,5.73-2.619,9-5Q138,30,137,24Zm-7,27,10-1q-0.5-5.5-1-11l-3,3-6,2v7Zm55-3-7,4c1.416,4.871,1.866,4.935,7,6,3.044-3.212-.152-1.486,5-2q0.5-4,1-8h-6Zm9,0q-0.5,5-1,10l3-2C195.944,51.462,195.8,50.253,194,48Zm-10,1c2.417,2.916,2.333,6.334,3,8-0.667-.333-2.333-2.667-3-3C182.312,50.167,180.625,48.458,184,49Zm-44,8q-0.5-2.5-1-5l-10,2v4Zm36-1c-1.619,6.279-.676,6.426,4,9l3-4-1-2ZM158,79q-1-8.5-2-17c-9.952-3.953-33.26-3.022-40,3l27,2v6c-8.016,2.076-33.185,1.257-39,5v1h54Zm97-18-26,7L219,82l1,2,13,3C239.046,84.442,261.531,66.277,255,61Zm-81,5q0.5,3,1,6l6,1V67Zm-63,1-4,6v1c12.152,0.429,26.888.924,34-4V69Zm70,14V75l-7-1q-0.5,2-1,4l3,2Zm79-4c-4.744,6.807-10.746,18.585-3,27C258.582,97.129,266.8,81.334,260,77ZM74,82c-17.878,11.226-29.185,32.316-22,62,19.571,14.561,154.336,14.341,182,4,7.955-2.973,13.949-10.148,16-19C264.353,67.052,125.408,81.31,74,82ZM60,84c-17.247,9.488-26.383,32.847-20,59a40.087,40.087,0,0,0,13,6v-1c-14.986-21.845,1.032-50.052,12-64H60Zm46,14a41.205,41.205,0,0,1,23,8q1,4.5,2,9-1,3-2,6c-7.7,6.3-28.059,15.752-35,1-2.859-4.774-1.5-9.812,0-15Zm54,2c11.587-.5,22.047,1.767,26,9,1.9,4.393.159,8.975-1,13-9.76,8.146-30.252,16.222-38-1q-0.5-2.5-1-5C149.555,107.155,153.471,105.451,160,100Zm-55,1L95,112c0.872,5.777,2.441,7.41,5,11,10.307,2.9,19.57,1.648,27-3q0.5-1,1-2c0.115-7.729-1.153-8.972-4-13C117.765,103.1,113.656,101.193,105,101Zm57,2c-7.307,4.789-9.785,6.886-13,16,4.614,4.914,15.15,11.97,26,7a13.9,13.9,0,0,0,8-8c1.512-5.279.319-7.423-2-11C174.889,105.066,170.706,103.17,162,103Zm90,8q1,5.5,2,11l6-2c2.125-2.079,1.842-2.59,2-7l-1-2h-9Zm6,17c-3.336,8.731-3.067,22.8,3,28l2-3C266.566,145.306,262,131.924,258,128Zm-46,10c3.027,1.932,1.619.2,3,4q-0.5,1-1,2h-3l-1-1C210.722,139.41,210.7,140.127,212,138ZM67,139l6,1v1C68.793,141.568,69.513,142.55,67,139Zm40,0h5c-1.1,4.391-1.023,3.816-4,6C106.025,142.165,106.528,143.03,107,139Zm18,0,5,2-3,4h-3l-1-1Zm-38,1,6,1-2,1-3,1Zm56,1,5,3-3,2-4,1q-0.5-1.5-1-3Zm37,1h4q0.5,1.5,1,3-0.5,1-1,2h-4v-5Zm17,0h3c-0.359,2.755,0,2.157-2,5C196.215,144.4,196.4,145.389,197,142Zm-35,1c3.14,2.057,2.069.478,3,5l-2,1-5-4v-1Zm69,8-19,5,7,7c5.024,10.7,22.048,8.259,35,6l-8-9C240.568,156.65,238.7,152.471,231,151ZM183,52c-3.2-1.2,2,0,2,0"/>
</svg>
