<svg xmlns="http://www.w3.org/2000/svg" width="300" height="200" viewBox="0 0 300 200">
  <metadata><?xpacket begin="﻿" id="W5M0MpCehiHzreSzNTczkc9d"?>
<x:xmpmeta xmlns:x="adobe:ns:meta/" x:xmptk="Adobe XMP Core 5.6-c142 79.160924, 2017/07/13-01:06:39        ">
   <rdf:RDF xmlns:rdf="http://www.w3.org/1999/02/22-rdf-syntax-ns#">
      <rdf:Description rdf:about=""/>
   </rdf:RDF>
</x:xmpmeta>
                                                                                                    
                                                                                                    
                                                                                                    
                                                                                                    
                                                                                                    
                                                                                                    
                                                                                                    
                                                                                                    
                                                                                                    
                                                                                                    
                                                                                                    
                                                                                                    
                                                                                                    
                                                                                                    
                                                                                                    
                                                                                                    
                                                                                                    
                                                                                                    
                                                                                                    
                                                                                                    
                           
<?xpacket end="w"?></metadata>
<defs>
    <style>
      .cls-1 {
        fill: #838383;
      }

      .cls-1, .cls-2, .cls-3, .cls-4, .cls-5 {
        fill-rule: evenodd;
      }

      .cls-2 {
        fill: #444;
      }

      .cls-3 {
        fill: #207bf7;
      }

      .cls-4 {
        fill: #99bff3;
      }
    </style>
  </defs>
  <path id="Color_Fill_2" data-name="Color Fill 2" class="cls-1" d="M130,59c0.3-10.96-.119-21.414-3-29-12.739.584-10.727-8.134-6-14l2-1c11.6,0.07,14.79,4.095,21,9q0.5,15.5,1,31l15,3c1.476,5.86,2.218,17.525,4,22,13.365,0.9,25.175,1.15,38,3,4.626-12.343,25.393-29.8,42-22v4c-8.518,6.368-11.306,16.433-21,22l2,3c6.491,3.949,6.131,15.621,12,19,3.608,2.078,8.314,1.533,11,3v5l-4,7h-2c-9.1.792-2.386,8.956-7,16l-13,8v3l18,15q-1,3-2,6c-21.413,4.717-37.885-1.446-43-17-44.378.185-145.127,4.26-161-28-1.778-5.94-.412-12.907,1-18,13.681-9.245,27.5-20.875,45-26l24-3C105.43,67.692,116.366,59.072,130,59ZM246,75l4,2c-0.595,9.83-2.282,20.219-6,27C226.127,102.212,241.227,79.106,246,75Zm-7,51,7,2c2.461,8.484,5.712,17.463,4,27l-2,3-6-2C238.994,146.364,238.833,139.026,239,126Z"/>
  <path id="Color_Fill_3" data-name="Color Fill 3" class="cls-2" d="M129,17l6,1c10.768,5.481,8.595,22.2,8,39-3,.333-4-0.333-7,0C138.8,38.274,139.844,30.823,129,17ZM240,60c2.125,2.08,1.842,2.59,2,7-8.745,7.112-13.208,15.228-24,21l2,3c12.063,4.818,11.327,11.338,16,24,1.3-4.656.57-2.912,4-5l4,1v1c-2.1,5.773-1.906,8.8-8,11,0.639,14.277-1.643,14-8,22l-10,5q0.5,1,1,2l7,5c-38.913-2.919-188.627,3.618-192-38l3-8c3.547,19.993,38.686,21.863,59,26,38.792,7.9,89.788,11.66,110-17,2.8-3.97,9.272-16.776,6-25l-6-8C212.528,75.748,228.8,67,240,60ZM162,80H106V79c8.988-6.227,27,.374,39-3l17-8V80Zm85,2c1.694,6.721-2.247,17.222-7,21h-1v-3C238.021,92.975,243.114,87.115,247,82Zm-4,43,4,11-7,4Z"/>
  <path id="Color_Fill_4" data-name="Color Fill 4" class="cls-3" d="M123,16h3q0.5,5.5,1,11l-8,1V26c-1.668-4.47-.013-5.881,2-9Zm-9,50c8.451-.273,25.7-0.985,31,3l-2,3c-11.234,1.167-24.193,4.416-34,2V70Zm-2,33c8.28,0.546,18.7,4.269,22,10v7c-4.778,10.1-18.261,12.648-31,9l-5-8C99.5,105.469,104.155,103.891,112,99Zm55,2c9.525-.222,17.619,1.994,21,8q0.5,3,1,6c-6.465,14.059-24.211,15.974-36,6q0.5-4,1-8C156.8,105.962,160.786,104.569,167,101Z"/>
  <path id="Color_Fill_5" data-name="Color Fill 5" class="cls-4" d="M122,18l2,1q-0.5,3-1,6c-3.062-.024-1.4.962-4-1Zm-5,48h4l-2,4-8,1,2-4Zm-4,37,4,2-11,8h-1v-4l3-4Zm54,0h8v3c-8.261.883-10.117,4.177-15,8h-1v-4Z"/>
  <path id="Color_Fill_1" data-name="Color Fill 1" class="cls-5" d="M164,80l38,2c6.464-12.978,22.268-27.767,43-22-2.489,13.944-14.476,20.84-23,29,9.172,4.173,9.165,15.822,18,19-5.663-10.661-5.59-27.45,5-33,3.672-.682,2.695-1.237,5,2,3.135,8.137-4.008,23.057-7,30,3.16,3.083,4.8,3.566,7,8-0.805,5.854-1.934,5.908-5,9,3.708,7.41,10.764,23.758,4,32-1.963,2.066-.375,1.035-4,2l-4-3c-3.215-10.061-3.328-20.811,1-30h-4c-0.608,12.642-6.218,19.471-15,24l4,5,15,14q-0.5,1.5-1,3c-25.621,8.548-35.464-3.084-48-15-47.948,1.779-160.084,6.066-160-40,10.887-22.1,41.974-33.274,71-37,2.656-13.792,12.218-19.191,26-22,0.258-10.735,1.169-19.865-2-26l-9-1-3-6q0.5-2.5,1-5l6-5c8.94,2.011,16.38,1.561,20,9,3.987,7.638,3.453,23.39,2,33,8.425-.245,12.272,1.144,17,4Q163,70,164,80ZM121,17c-1.954,4.4-2.1,6.783,0,11l5-1V18Zm8,1c-0.392,7.705-.686,8.856,2,13l5-4q1-2.5,2-5l-2-3h-2Zm11,5c-2.809,7.172-6.535,6.791-7,17,4.962-1.113,5.73-2.619,9-5Q141,29,140,23Zm-7,27,10-1q-0.5-5.5-1-11l-3,3-6,2v7Zm10,6q-0.5-2.5-1-5l-10,2v4Zm18,23q-1-9-2-18c-9.952-3.953-33.26-3.022-40,3l27,2v6c-8.027,2-36.276,2.185-40,7h55Zm79-18-26,7L204,82l1,2,13,3C224.046,84.442,246.531,66.277,240,61ZM114,66l-4,6v1c12.152,0.429,26.888.924,34-4V68ZM245,77c-4.744,6.807-10.746,18.585-3,27l6-27h-3ZM101,82c-18.165,7.026-33.826,7.057-47,18,13.885,19.325,3.681,25.24,1,41,33.724,8.955,169.738,32.623,180-12C247.911,72.856,147.944,81.286,101,82Zm10,15a41.205,41.205,0,0,1,23,8q1,4.5,2,9-1,3-2,6c-7.7,6.3-28.059,15.752-35,1-2.859-4.774-1.5-9.812,0-15Zm54,2c11.587-.5,22.047,1.767,26,9,1.9,4.393.159,8.975-1,13-9.76,8.146-30.252,16.222-38-1q-0.5-2.5-1-5C154.555,106.155,158.471,104.451,165,99Zm-55,1-10,11c0.872,5.777,2.441,7.41,5,11,10.307,2.9,19.57,1.648,27-3q0.5-1,1-2c0.115-7.729-1.153-8.972-4-13C122.765,102.1,118.656,100.193,110,100Zm-60,1c-6.3,4.661-18.831,11.974-13,25,2.992,7.187,8.334,8.68,14,13l2-1C58.13,127.642,63.783,107.862,50,101Zm117,1c-7.307,4.789-9.785,6.886-13,16,4.614,4.914,15.15,11.97,26,7a13.9,13.9,0,0,0,8-8c1.512-5.279.319-7.423-2-11C179.889,104.066,175.706,102.17,167,102Zm70,9q1,5.5,2,11l6-2c2.125-2.079,1.842-2.59,2-7q-0.5-1-1-2h-9Zm6,17c-3.336,8.731-3.067,22.8,3,28l2-3C251.566,145.306,247,131.924,243,128ZM92,137h5l-1,5-4,1v-6Zm105,1c3.027,1.932,1.619.2,3,4q-0.5,1-1,2h-3l-1-1C195.722,139.41,195.7,140.127,197,138Zm-87,1,5,2-3,4h-3l-1-1Zm18,2,5,3-3,2-4,1q-0.5-1.5-1-3Zm37,1h4q0.5,1.5,1,3-0.5,1-1,2h-4v-5Zm17,0h3c-0.359,2.755,0,2.157-2,5C181.215,144.4,181.4,145.389,182,142Zm-35,1c3.14,2.057,2.069.478,3,5l-2,1-5-4v-1Zm69,8-19,5,7,7c5.024,10.7,22.048,8.259,35,6l-8-9C225.568,156.65,223.7,152.471,216,151Z"/>
</svg>
